<?xml version="1.0" standalone="no"?>
<!DOCTYPE svg PUBLIC "-//W3C//DTD SVG 20010904//EN"
 "http://www.w3.org/TR/2001/REC-SVG-20010904/DTD/svg10.dtd">
<svg version="1.0" xmlns="http://www.w3.org/2000/svg"
 width="797.000000pt" height="522.000000pt" viewBox="0 0 797.000000 522.000000"
 preserveAspectRatio="xMidYMid meet">

<g transform="translate(0.000000,522.000000) scale(0.100000,-0.100000)"
fill="#000000" stroke="none">
<path d="M4020 4420 c0 -5 19 -10 43 -9 32 0 37 2 22 9 -28 12 -65 12 -65 0z"/>
<path d="M3507 4391 c-20 -10 -62 -20 -94 -23 -37 -2 -81 -15 -123 -35 -57
-28 -61 -31 -30 -27 58 6 67 -11 16 -30 -25 -10 -48 -25 -51 -35 -3 -10 -31
-28 -63 -41 -31 -13 -86 -39 -122 -58 -36 -20 -80 -43 -98 -53 -36 -19 -89
-58 -129 -95 -14 -13 -38 -24 -54 -24 -19 0 -30 -6 -34 -19 -3 -11 -20 -32
-38 -48 -18 -16 -49 -49 -70 -75 -21 -25 -52 -56 -70 -68 -18 -13 -41 -41 -50
-65 -20 -47 -72 -102 -102 -107 -24 -4 -60 -62 -90 -145 -26 -74 -12 -92 30
-37 32 41 50 44 41 7 l-6 -28 15 25 c17 29 19 44 5 35 -22 -13 -8 12 29 53 41
45 51 51 51 26 0 -8 5 -12 10 -9 6 4 -10 -25 -35 -63 -53 -83 -124 -225 -156
-317 -13 -36 -29 -65 -35 -65 -26 0 -37 30 -30 85 7 62 -5 77 -50 57 -17 -9
-24 -20 -24 -41 0 -17 -10 -47 -22 -68 -20 -33 -23 -55 -26 -158 l-4 -120 36
-19 c26 -14 36 -26 36 -44 0 -14 7 -26 18 -28 15 -5 17 -18 14 -125 -3 -100
-6 -120 -17 -115 -18 7 -39 -30 -30 -52 4 -9 9 -46 11 -81 3 -36 8 -69 11 -74
3 -5 -3 -4 -14 1 -16 9 -21 30 -31 114 -15 129 -15 139 3 108 19 -34 19 -7 0
56 -8 27 -15 66 -15 87 0 40 -13 48 -30 18 -23 -45 2 -410 39 -551 37 -141
127 -380 163 -432 10 -14 18 -31 18 -38 0 -23 35 -77 86 -134 50 -56 69 -87
42 -70 -7 4 -8 3 -4 -5 4 -6 11 -9 15 -6 5 2 13 -7 19 -20 7 -14 18 -25 27
-25 8 0 15 -9 15 -20 0 -20 37 -43 70 -44 8 -1 17 -14 20 -31 4 -22 11 -31 30
-33 27 -4 57 -22 58 -36 1 -5 13 -10 26 -12 40 -4 78 -30 139 -93 32 -34 65
-61 73 -61 8 0 14 -4 14 -8 0 -5 26 -18 58 -31 31 -12 64 -27 72 -32 8 -5 38
-20 65 -33 28 -13 57 -31 64 -40 7 -9 23 -16 35 -16 11 0 53 -9 91 -20 39 -11
84 -20 102 -20 17 0 34 -4 37 -9 3 -4 38 -11 78 -14 106 -9 170 -17 198 -24
79 -19 357 -12 553 13 26 3 47 2 47 -3 0 -19 -224 -44 -410 -44 -276 -1 -381
11 -566 67 -44 13 -98 24 -120 23 l-39 -1 30 -14 c43 -20 187 -64 242 -74 261
-47 295 -51 451 -46 151 4 230 11 262 23 8 3 31 7 50 9 19 2 53 6 75 8 22 3
78 10 125 15 49 6 102 19 125 30 21 12 46 21 54 21 8 0 43 16 78 35 35 19 73
35 83 35 13 0 20 7 20 20 0 16 7 20 30 20 19 0 33 7 40 20 6 11 15 20 20 20 5
0 44 26 87 58 43 33 89 65 103 72 14 7 44 30 67 51 24 22 47 39 52 39 5 0 24
12 42 27 39 33 91 53 140 53 47 0 69 25 69 78 0 29 7 49 25 70 26 31 64 108
65 130 0 7 9 32 21 57 11 24 19 50 17 57 -2 6 4 20 14 30 10 10 18 33 18 51 0
17 12 64 26 102 14 39 35 102 46 140 11 39 24 77 28 86 5 9 19 72 31 140 17
97 20 144 16 218 -4 51 -11 99 -16 105 -5 6 -12 68 -14 136 -2 88 -10 147 -25
199 -15 54 -18 78 -10 90 8 13 5 29 -11 63 -11 26 -21 67 -21 92 0 63 -54 216
-85 241 -15 13 -25 31 -25 46 0 27 -15 57 -94 194 -26 44 -54 97 -63 118 -19
43 -33 48 -33 12 0 -14 -4 -25 -10 -25 -5 0 -10 8 -10 18 0 10 -25 41 -56 68
-31 27 -73 67 -93 88 -62 67 -65 71 -114 105 -26 19 -54 45 -62 58 -9 12 -31
30 -51 38 -20 8 -48 27 -62 43 -25 25 -121 82 -139 82 -5 0 21 -18 57 -40 36
-22 88 -60 115 -85 l50 -45 -40 14 c-22 8 -83 34 -135 59 -52 25 -115 48 -140
52 -25 4 -52 13 -60 20 -8 7 -37 20 -65 29 -168 53 -213 66 -237 66 -15 0 -30
5 -33 11 -4 6 -13 8 -21 5 -7 -3 -39 0 -71 5 -32 6 -80 13 -108 15 -67 5 -82
11 -67 26 9 9 15 9 24 0 17 -17 33 -15 18 3 -7 8 -21 15 -31 15 -9 0 -24 -7
-33 -15 -8 -8 -26 -15 -39 -15 -14 0 -41 7 -60 15 -20 8 -53 15 -74 16 -29 1
-20 4 36 15 40 7 76 16 79 19 3 3 -82 5 -189 5 -171 0 -199 -2 -232 -19z
m-161 -120 c-6 -9 -91 -41 -110 -41 -15 0 24 25 59 38 38 13 58 15 51 3z
m-730 -583 c-14 -18 -47 -61 -74 -95 -26 -35 -48 -59 -50 -54 -5 16 18 51 54
83 19 17 34 34 34 38 0 12 43 60 54 60 5 0 -3 -15 -18 -32z m1509 -121 c133
-68 198 -224 151 -365 -16 -46 -85 -140 -86 -116 0 6 9 19 19 28 35 32 64 116
65 186 0 113 -59 206 -160 256 -49 24 -62 26 -139 22 -47 -2 -91 -10 -97 -16
-15 -15 -28 -16 -28 -2 0 5 21 16 48 25 68 22 165 14 227 -18z m-595 -57 c0
-40 4 -70 10 -70 6 0 10 30 10 70 0 40 4 70 10 70 6 0 10 -31 10 -72 0 -90 17
-80 23 12 l3 65 2 -72 c3 -94 22 -96 22 -3 0 40 4 70 10 70 6 0 10 -42 10
-107 0 -85 -3 -110 -17 -125 -9 -10 -22 -18 -30 -18 -10 0 -13 -41 -15 -202
l-3 -203 -2 203 c-3 167 -6 202 -18 202 -32 0 -45 41 -45 147 0 62 4 103 10
103 6 0 10 -30 10 -70z m921 50 c28 -15 49 -63 49 -111 0 -34 -6 -47 -35 -76
l-35 -35 0 -199 c0 -126 -4 -199 -10 -199 -6 0 -10 74 -10 201 l0 201 -25 20
c-54 42 -53 145 2 188 29 23 37 24 64 10z m-712 -132 c-15 -28 -24 -68 -27
-116 -4 -66 -2 -78 27 -136 54 -111 169 -172 295 -160 38 4 47 3 36 -5 -8 -6
-44 -11 -80 -11 -217 1 -357 222 -270 426 11 24 24 44 30 44 6 0 1 -19 -11
-42z m315 -2 c44 -18 76 -72 76 -127 0 -148 -195 -191 -263 -59 -19 37 -18
103 2 123 7 7 9 -5 4 -40 -5 -42 -2 -58 17 -87 27 -45 47 -56 100 -56 73 0
102 25 125 109 15 52 -48 131 -104 131 -12 0 -21 5 -21 10 0 14 25 12 64 -4z
m-920 -772 c3 -9 6 -40 6 -70 l0 -54 -40 0 c-26 0 -51 8 -69 21 -19 14 -39 19
-62 17 l-34 -3 0 -90 0 -90 73 -3 72 -3 0 -49 0 -50 -75 0 -75 0 0 -100 0
-100 50 0 c39 0 52 4 60 20 8 15 21 20 55 20 l45 0 0 -63 c0 -36 -5 -68 -12
-75 -8 -8 -64 -12 -185 -12 l-173 0 0 39 c0 22 7 46 15 55 13 12 15 55 15 259
0 205 -2 247 -15 257 -9 7 -15 29 -15 51 l0 39 179 0 c154 0 180 -2 185 -16z
m364 4 c6 -7 37 -138 71 -292 34 -159 67 -286 76 -296 8 -9 15 -35 15 -58 l0
-42 -95 0 -95 0 0 33 c0 17 8 45 19 60 10 16 16 38 13 53 -4 24 -7 25 -66 22
-55 -3 -61 -5 -64 -26 -2 -13 4 -38 12 -57 9 -18 16 -45 16 -59 l0 -26 -95 0
-95 0 0 40 c0 24 8 52 19 68 12 17 37 110 65 242 48 224 53 260 36 260 -5 0
-10 20 -10 45 l0 45 84 0 c55 0 87 -4 94 -12z m560 -65 l3 -73 -29 0 c-16 0
-41 9 -55 20 -30 24 -53 26 -61 4 -3 -9 -6 -115 -6 -237 0 -187 2 -223 16
-238 9 -10 18 -36 21 -58 l6 -41 -102 0 -101 0 0 31 c0 18 9 46 20 64 19 31
20 47 18 261 -3 209 -5 229 -20 232 -10 2 -30 -6 -44 -17 -15 -12 -40 -21 -55
-21 l-29 0 0 68 c0 38 3 72 7 76 4 3 97 5 207 4 l201 -3 3 -72z m262 44 c0
-18 -7 -42 -15 -53 -22 -29 -22 -506 0 -524 9 -7 15 -29 15 -51 l0 -39 -95 0
-95 0 0 44 c0 26 6 48 15 56 22 18 22 475 0 504 -8 11 -15 37 -15 58 l0 38 95
0 95 0 0 -33z m428 -39 l3 -68 -34 0 c-19 0 -46 9 -61 21 -18 14 -37 19 -63
17 l-38 -3 -3 -92 -3 -92 68 -3 68 -3 3 -47 3 -47 -68 -3 -68 -3 -3 -98 c-2
-77 0 -101 13 -113 8 -9 15 -33 15 -55 l0 -39 -95 0 -95 0 0 38 c0 21 7 47 15
58 22 29 22 486 0 504 -9 8 -15 30 -15 56 l0 44 178 -2 177 -3 3 -67z m252 29
c0 -24 -5 -48 -12 -55 -9 -9 -7 -33 12 -107 13 -52 27 -95 30 -95 3 0 16 43
30 95 18 73 21 98 12 107 -7 7 -12 31 -12 55 l0 43 90 0 90 0 0 -37 c0 -22 -8
-45 -19 -57 -10 -12 -41 -94 -70 -183 -44 -138 -51 -173 -51 -241 0 -58 4 -83
15 -92 9 -7 15 -29 15 -51 l0 -39 -95 0 -95 0 0 38 c0 20 7 46 15 56 10 13 15
43 15 86 0 55 -10 97 -55 231 -31 90 -65 176 -75 191 -11 15 -20 43 -20 63 l0
35 90 0 90 0 0 -43z m-276 -797 c14 -13 -2 -43 -19 -36 -8 3 -21 8 -28 11 -8
3 -24 -3 -38 -14 -20 -16 -22 -23 -14 -47 8 -21 18 -30 38 -32 26 -3 38 13 15
20 -7 3 -9 12 -5 22 5 12 15 16 34 14 24 -3 28 -8 31 -38 4 -42 -16 -60 -70
-60 -96 0 -123 134 -34 170 22 10 75 3 90 -10z m254 -2 c20 -17 -5 -40 -30
-27 -15 8 -25 6 -44 -6 -48 -31 -17 -92 42 -81 39 8 56 -11 29 -31 -53 -38
-135 4 -135 69 0 77 82 122 138 76z m-1830 -5 c-2 -10 -13 -19 -26 -21 -20 -3
-22 -9 -22 -68 0 -57 -2 -64 -20 -64 -18 0 -20 7 -20 65 0 58 -2 65 -20 65
-13 0 -20 7 -20 20 0 18 7 20 66 20 57 0 65 -2 62 -17z m151 -64 c17 -44 31
-83 31 -85 0 -12 -49 -2 -54 11 -3 8 -17 15 -31 15 -14 0 -28 -7 -31 -15 -4
-8 -17 -15 -31 -15 -14 0 -23 4 -21 8 2 4 16 42 32 85 24 65 32 77 51 77 20 0
28 -12 54 -81z m184 75 c9 -3 13 -13 10 -25 -6 -22 -5 -22 -38 -7 -19 8 -28 9
-37 0 -8 -8 -4 -14 18 -23 63 -27 78 -56 47 -91 -31 -34 -123 -18 -123 22 0
24 4 25 35 4 24 -16 55 -13 55 4 0 5 -18 16 -40 25 -34 13 -40 20 -40 44 0 16
5 34 12 41 12 12 75 16 101 6z m167 -14 c0 -13 -7 -20 -20 -20 -18 0 -20 -7
-20 -65 0 -58 -2 -65 -20 -65 -18 0 -20 7 -20 65 0 58 -2 65 -20 65 -13 0 -20
7 -20 20 0 18 7 20 60 20 53 0 60 -2 60 -20z m160 5 c0 -11 -11 -15 -40 -15
-33 0 -40 -3 -40 -20 0 -15 7 -20 25 -20 16 0 25 -6 25 -15 0 -9 -9 -15 -25
-15 -18 0 -25 -5 -25 -20 0 -17 7 -20 40 -20 29 0 40 -4 40 -15 0 -12 -14 -15
-65 -15 l-65 0 0 85 0 85 65 0 c51 0 65 -3 65 -15z m235 -10 c18 -17 25 -35
25 -64 0 -54 -34 -81 -101 -81 l-49 0 0 85 0 85 50 0 c41 0 56 -5 75 -25z
m203 -27 l20 -53 11 28 c6 15 15 38 21 52 7 17 17 25 35 25 25 0 25 -1 25 -85
0 -78 -2 -85 -20 -85 -17 0 -20 7 -21 43 l0 42 -19 -42 c-24 -53 -43 -54 -63
-5 l-15 37 -1 -37 c-1 -31 -5 -38 -21 -38 -18 0 -20 7 -20 85 0 83 1 85 24 85
19 0 27 -10 44 -52z m275 -15 c14 -38 28 -76 32 -85 6 -14 2 -18 -18 -18 -14
0 -27 7 -31 15 -3 8 -16 15 -29 15 -14 0 -30 -7 -37 -15 -18 -22 -54 -20 -46
3 49 132 60 152 81 152 19 0 27 -12 48 -67z m287 -18 c0 -84 0 -85 -25 -85
-25 0 -25 1 -25 85 0 84 0 85 25 85 25 0 25 -1 25 -85z"/>
<path d="M3530 3401 c0 -40 13 -53 51 -49 31 3 34 6 37 39 l3 36 -45 -1 c-43
0 -46 -2 -46 -25z"/>
<path d="M4375 3520 c-35 -69 -3 -165 53 -158 33 4 52 39 52 98 0 58 -22 90
-60 90 -23 0 -33 -7 -45 -30z"/>
<path d="M3415 2393 c-9 -54 -19 -108 -22 -120 -5 -21 -2 -23 41 -23 25 0 46
3 46 8 0 16 -40 226 -44 229 -2 2 -11 -40 -21 -94z"/>
<path d="M3236 1765 c-10 -26 -7 -35 9 -35 17 0 19 18 6 38 -7 11 -10 10 -15
-3z"/>
<path d="M3960 1756 c0 -53 12 -64 45 -42 43 28 28 86 -22 86 -21 0 -23 -5
-23 -44z"/>
<path d="M4462 1760 c-7 -19 -6 -26 5 -28 22 -5 27 5 16 30 l-11 23 -10 -25z"/>
<path d="M4120 4340 c0 -5 5 -10 10 -10 6 0 10 5 10 10 0 6 -4 10 -10 10 -5 0
-10 -4 -10 -10z"/>
<path d="M4415 4340 c3 -5 8 -10 11 -10 2 0 4 5 4 10 0 6 -5 10 -11 10 -5 0
-7 -4 -4 -10z"/>
<path d="M4530 4301 c0 -11 31 -24 39 -16 3 3 -1 10 -9 15 -19 12 -30 12 -30
1z"/>
<path d="M3155 4278 c-65 -22 -106 -42 -117 -56 -7 -8 10 -3 39 12 29 14 58
26 66 26 7 0 22 7 33 15 22 16 20 17 -21 3z"/>
<path d="M2800 4068 c-19 -16 -27 -27 -17 -24 10 3 23 6 27 6 10 0 34 39 28
45 -2 2 -19 -10 -38 -27z"/>
<path d="M2693 3987 c-21 -9 -38 -35 -29 -44 2 -2 17 7 32 21 32 27 31 39 -3
23z"/>
<path d="M2689 3944 c-23 -25 -23 -26 -2 -15 23 12 38 29 31 37 -3 2 -15 -8
-29 -22z"/>
<path d="M2614 3895 c-4 -8 -11 -15 -17 -15 -24 0 -157 -156 -157 -184 0 -13
29 9 90 69 76 73 128 145 105 145 -9 0 -18 -7 -21 -15z"/>
<path d="M2445 3670 c-3 -5 -2 -10 4 -10 5 0 13 5 16 10 3 6 2 10 -4 10 -5 0
-13 -4 -16 -10z"/>
<path d="M2398 3645 c-27 -37 -21 -54 7 -20 14 17 25 33 25 38 0 14 -15 6 -32
-18z"/>
<path d="M5847 2613 c-10 -10 -8 -53 2 -53 5 0 11 14 13 30 4 29 -1 37 -15 23z"/>
<path d="M5867 2514 c-10 -19 -17 -50 -17 -69 0 -19 -4 -44 -9 -57 -5 -13 -12
-36 -16 -51 -7 -34 -25 -26 -25 11 -1 58 -20 -7 -26 -85 -7 -99 -16 -141 -48
-226 -14 -37 -26 -78 -26 -90 0 -12 -7 -31 -15 -41 -8 -11 -15 -27 -15 -35 0
-9 -7 -29 -15 -45 -20 -38 -19 -53 3 -33 26 24 42 21 42 -8 0 -29 7 -31 36 -7
26 21 45 57 78 148 13 38 31 89 40 113 9 24 20 64 23 90 4 25 12 52 20 59 15
16 18 46 3 37 -5 -3 -10 0 -10 9 0 8 4 16 8 18 5 2 16 41 24 87 14 79 14 85
-3 102 -10 10 -15 26 -12 37 2 11 0 23 -6 26 -5 4 -8 13 -5 20 12 31 -14 22
-29 -10z"/>
<path d="M2550 1306 c0 -2 7 -9 15 -16 13 -11 14 -10 9 4 -5 14 -24 23 -24 12z"/>
</g>
</svg>
